<?xml version="1.0" encoding="UTF-8"?>
<svg viewBox="0 0 762.63757 700" xmlns="http://www.w3.org/2000/svg" xmlns:xlink="http://www.w3.org/1999/xlink">
 <defs>
  <path id="a" transform="matrix(-.16038 -.17816 .1727 -.15546 893.59 878.92)" d="m1079.4 370.4a365.25 376.81 0 1 1 -730.49 0 365.25 376.81 0 1 1 730.49 0z" fill="#222f5e"/>
  <filter id="b">
   <feGaussianBlur in="SourceGraphic" result="fbSourceGraphic" stdDeviation="5 0.01"/>
   <feColorMatrix in="fbSourceGraphic" result="fbSourceGraphicAlpha" values="0 0 0 -1 0 0 0 0 -1 0 0 0 0 -1 0 0 0 0 1 0"/>
   <feGaussianBlur in="fbSourceGraphic" result="fbSourceGraphic" stdDeviation="0.01 5"/>
   <feColorMatrix in="fbSourceGraphic" result="fbSourceGraphicAlpha" values="0 0 0 -1 0 0 0 0 -1 0 0 0 0 -1 0 0 0 0 1 0"/>
   <feGaussianBlur in="fbSourceGraphic" result="fbSourceGraphic" stdDeviation="5 0.01"/>
   <feColorMatrix in="fbSourceGraphic" result="fbSourceGraphicAlpha" values="0 0 0 -1 0 0 0 0 -1 0 0 0 0 -1 0 0 0 0 1 0"/>
   <feGaussianBlur in="fbSourceGraphic" result="fbSourceGraphic" stdDeviation="0.01 5"/>
   <feColorMatrix in="fbSourceGraphic" result="fbSourceGraphicAlpha" values="0 0 0 -1 0 0 0 0 -1 0 0 0 0 -1 0 0 0 0 1 0"/>
   <feGaussianBlur in="fbSourceGraphic" result="fbSourceGraphic" stdDeviation="5 0.01"/>
   <feColorMatrix in="fbSourceGraphic" result="fbSourceGraphicAlpha" values="0 0 0 -1 0 0 0 0 -1 0 0 0 0 -1 0 0 0 0 1 0"/>
   <feGaussianBlur in="fbSourceGraphic" stdDeviation="0.01 5"/>
  </filter>
 </defs>
 <g transform="translate(-462.62 -348.03)">
  <g transform="matrix(1,0,0,-1,-2,6)" fill-opacity=".9882" font-family="BeautySchoolDropoutII" font-size="100" letter-spacing="0" word-spacing="0">
   <path d="m992.91579-875.74305-1.2497,2.75116c-.0651.0651-.11445.13122-.14801.19836s-.0504.13428-.0504.20142c0,.13224.0498.23193.14954.29907s.21667.13427.35095.20142c.0651-1e-005 .11444.0163.14801.0488s.0839.0488.15106.0488h.0504 .14801c.13427,0 .2182-.0498.25177-.14953s.0829-.21566.14801-.3479l.90027-1.85013 .45013-.92507 4.20231,1.42333-1.75017,3.75061c-.40081.79955-.90129,1.38295-1.50147,1.75018s-1.26648.55084-1.9989.55084c-.13428,0-.26805-.0168-.4013-.0503s-.26602-.0504-.39826-.0504c-.13428-.0671-.26805-.11749-.4013-.15106s-.26602-.0829-.39826-.14801c-.66732-.26856-1.20087-.70242-1.60065-1.30157s-.59967-1.29955-.59967-2.10114c0-.26652.0331-.54983.0992-.84991s.16632-.61595.30059-.94757l1.39771-2.80152z"/>
   <path d="m992.91579-875.74305-1.2497,2.75116c-.0651.0651-.11445.13122-.14801.19836s-.0504.13428-.0504.20142c0,.13224.0498.23193.14954.29907s.21667.13427.35095.20142c.0651-1e-005 .11444.0163.14801.0488s.0839.0488.15106.0488h.0504 .14801c.13427,0 .2182-.0498.25177-.14953s.0829-.21566.14801-.3479l.90027-1.85013 .45013-.92507 4.20231,1.42333-1.75017,3.75061c-.40081.79955-.90129,1.38295-1.50147,1.75018s-1.26648.55084-1.9989.55084c-.13428,0-.26805-.0168-.4013-.0503s-.26602-.0504-.39826-.0504c-.13428-.0671-.26805-.11749-.4013-.15106s-.26602-.0829-.39826-.14801c-.66732-.26856-1.20087-.70242-1.60065-1.30157s-.59967-1.29955-.59967-2.10114c0-.26652.0331-.54983.0992-.84991s.16632-.61595.30059-.94757l1.39771-2.80152z"/>
  </g>
  <g transform="matrix(.63011 -.77651 .77651 .63011 1044.9 2203.7)" fill-opacity=".9882" font-family="BeautySchoolDropoutII" font-size="100" letter-spacing="0" word-spacing="0">
   <path d="m992.91579-875.74305-1.2497,2.75116c-.0651.0651-.11445.13122-.14801.19836s-.0504.13428-.0504.20142c0,.13224.0498.23193.14954.29907s.21667.13427.35095.20142c.0651-1e-005 .11444.0163.14801.0488s.0839.0488.15106.0488h.0504 .14801c.13427,0 .2182-.0498.25177-.14953s.0829-.21566.14801-.3479l.90027-1.85013 .45013-.92507 4.20231,1.42333-1.75017,3.75061c-.40081.79955-.90129,1.38295-1.50147,1.75018s-1.26648.55084-1.9989.55084c-.13428,0-.26805-.0168-.4013-.0503s-.26602-.0504-.39826-.0504c-.13428-.0671-.26805-.11749-.4013-.15106s-.26602-.0829-.39826-.14801c-.66732-.26856-1.20087-.70242-1.60065-1.30157s-.59967-1.29955-.59967-2.10114c0-.26652.0331-.54983.0992-.84991s.16632-.61595.30059-.94757l1.39771-2.80152z"/>
   <path d="m992.91579-875.74305-1.2497,2.75116c-.0651.0651-.11445.13122-.14801.19836s-.0504.13428-.0504.20142c0,.13224.0498.23193.14954.29907s.21667.13427.35095.20142c.0651-1e-005 .11444.0163.14801.0488s.0839.0488.15106.0488h.0504 .14801c.13427,0 .2182-.0498.25177-.14953s.0829-.21566.14801-.3479l.90027-1.85013 .45013-.92507 4.20231,1.42333-1.75017,3.75061c-.40081.79955-.90129,1.38295-1.50147,1.75018s-1.26648.55084-1.9989.55084c-.13428,0-.26805-.0168-.4013-.0503s-.26602-.0504-.39826-.0504c-.13428-.0671-.26805-.11749-.4013-.15106s-.26602-.0829-.39826-.14801c-.66732-.26856-1.20087-.70242-1.60065-1.30157s-.59967-1.29955-.59967-2.10114c0-.26652.0331-.54983.0992-.84991s.16632-.61595.30059-.94757l1.39771-2.80152z"/>
  </g>
  <path transform="matrix(.95185 0 0 .92263 164.22 356.29)" d="m1079.4 370.4c0 208.11-163.53 376.81-365.25 376.81s-365.25-168.7-365.25-376.81 163.53-376.81 365.25-376.81 365.25 168.7 365.25 376.81z" stroke="#000" stroke-linecap="round" stroke-opacity=".8503" stroke-width="5"/>
  <path transform="matrix(.9404 0 0 .91154 172.39 360.4)" d="m1079.4 370.4c0 208.11-163.53 376.81-365.25 376.81s-365.25-168.7-365.25-376.81 163.53-376.81 365.25-376.81 365.25 168.7 365.25 376.81z" stroke="#fff" stroke-linecap="round" stroke-opacity=".1231" stroke-width="3.293"/>
  <path transform="matrix(.92677 0 0 .89833 182.12 365.29)" d="m1079.4 370.4c0 208.11-163.53 376.81-365.25 376.81s-365.25-168.7-365.25-376.81 163.53-376.81 365.25-376.81 365.25 168.7 365.25 376.81z" stroke="#fff" stroke-linecap="round" stroke-opacity=".1231" stroke-width="3.293"/>
  <path transform="matrix(.91314 0 0 .88511 191.86 370.18)" d="m1079.4 370.4c0 208.11-163.53 376.81-365.25 376.81s-365.25-168.7-365.25-376.81 163.53-376.81 365.25-376.81 365.25 168.7 365.25 376.81z" stroke="#fff" stroke-linecap="round" stroke-opacity=".1231" stroke-width="3.293"/>
  <path transform="matrix(.89951 0 0 .8719 201.59 375.08)" d="m1079.4 370.4c0 208.11-163.53 376.81-365.25 376.81s-365.25-168.7-365.25-376.81 163.53-376.81 365.25-376.81 365.25 168.7 365.25 376.81z" stroke="#fff" stroke-linecap="round" stroke-opacity=".1231" stroke-width="3.293"/>
  <path transform="matrix(.88588 0 0 .85869 211.32 379.97)" d="m1079.4 370.4c0 208.11-163.53 376.81-365.25 376.81s-365.25-168.7-365.25-376.81 163.53-376.81 365.25-376.81 365.25 168.7 365.25 376.81z" stroke="#fff" stroke-linecap="round" stroke-opacity=".1231" stroke-width="3.293"/>
  <path transform="matrix(.87225 0 0 .84548 221.05 384.86)" d="m1079.4 370.4c0 208.11-163.53 376.81-365.25 376.81s-365.25-168.7-365.25-376.81 163.53-376.81 365.25-376.81 365.25 168.7 365.25 376.81z" stroke="#fff" stroke-linecap="round" stroke-opacity=".1231" stroke-width="3.293"/>
  <path transform="matrix(.85862 0 0 .83227 230.79 389.76)" d="m1079.4 370.4c0 208.11-163.53 376.81-365.25 376.81s-365.25-168.7-365.25-376.81 163.53-376.81 365.25-376.81 365.25 168.7 365.25 376.81z" stroke="#fff" stroke-linecap="round" stroke-opacity=".1231" stroke-width="3.293"/>
  <path transform="matrix(.84499 0 0 .81906 240.52 394.65)" d="m1079.4 370.4c0 208.11-163.53 376.81-365.25 376.81s-365.25-168.7-365.25-376.81 163.53-376.81 365.25-376.81 365.25 168.7 365.25 376.81z" stroke="#fff" stroke-linecap="round" stroke-opacity=".1231" stroke-width="3.293"/>
  <path transform="matrix(.83137 0 0 .80585 250.25 399.54)" d="m1079.4 370.4c0 208.11-163.53 376.81-365.25 376.81s-365.25-168.7-365.25-376.81 163.53-376.81 365.25-376.81 365.25 168.7 365.25 376.81z" stroke="#fff" stroke-linecap="round" stroke-opacity=".1231" stroke-width="3.293"/>
  <path transform="matrix(.80411 0 0 .77943 269.72 409.33)" d="m1079.4 370.4c0 208.11-163.53 376.81-365.25 376.81s-365.25-168.7-365.25-376.81 163.53-376.81 365.25-376.81 365.25 168.7 365.25 376.81z" stroke="#fff" stroke-linecap="round" stroke-opacity=".1231" stroke-width="3.293"/>
  <path transform="matrix(.79048 0 0 .76622 279.45 414.22)" d="m1079.4 370.4c0 208.11-163.53 376.81-365.25 376.81s-365.25-168.7-365.25-376.81 163.53-376.81 365.25-376.81 365.25 168.7 365.25 376.81z" stroke="#fff" stroke-linecap="round" stroke-opacity=".1231" stroke-width="3.293"/>
  <path transform="matrix(.77685 0 0 .75301 289.18 419.12)" d="m1079.4 370.4c0 208.11-163.53 376.81-365.25 376.81s-365.25-168.7-365.25-376.81 163.53-376.81 365.25-376.81 365.25 168.7 365.25 376.81z" stroke="#fff" stroke-linecap="round" stroke-opacity=".1231" stroke-width="3.293"/>
  <path transform="matrix(.76322 0 0 .7398 298.91 424.01)" d="m1079.4 370.4c0 208.11-163.53 376.81-365.25 376.81s-365.25-168.7-365.25-376.81 163.53-376.81 365.25-376.81 365.25 168.7 365.25 376.81z" stroke="#fff" stroke-linecap="round" stroke-opacity=".1231" stroke-width="3.293"/>
  <path transform="matrix(.74959 0 0 .72659 308.65 428.9)" d="m1079.4 370.4c0 208.11-163.53 376.81-365.25 376.81s-365.25-168.7-365.25-376.81 163.53-376.81 365.25-376.81 365.25 168.7 365.25 376.81z" stroke="#fff" stroke-linecap="round" stroke-opacity=".1231" stroke-width="3.293"/>
  <path transform="matrix(.73596 0 0 .71338 318.38 433.8)" d="m1079.4 370.4c0 208.11-163.53 376.81-365.25 376.81s-365.25-168.7-365.25-376.81 163.53-376.81 365.25-376.81 365.25 168.7 365.25 376.81z" stroke="#fff" stroke-linecap="round" stroke-opacity=".1231" stroke-width="3.293"/>
  <path transform="matrix(.72233 0 0 .70017 328.11 438.69)" d="m1079.4 370.4c0 208.11-163.53 376.81-365.25 376.81s-365.25-168.7-365.25-376.81 163.53-376.81 365.25-376.81 365.25 168.7 365.25 376.81z" stroke="#fff" stroke-linecap="round" stroke-opacity=".1231" stroke-width="3.293"/>
  <path transform="matrix(.69508 0 0 .67374 347.58 448.48)" d="m1079.4 370.4c0 208.11-163.53 376.81-365.25 376.81s-365.25-168.7-365.25-376.81 163.53-376.81 365.25-376.81 365.25 168.7 365.25 376.81z" stroke="#fff" stroke-linecap="round" stroke-opacity=".1231" stroke-width="3.293"/>
  <path transform="matrix(.68145 0 0 .66053 357.31 453.37)" d="m1079.4 370.4c0 208.11-163.53 376.81-365.25 376.81s-365.25-168.7-365.25-376.81 163.53-376.81 365.25-376.81 365.25 168.7 365.25 376.81z" stroke="#fff" stroke-linecap="round" stroke-opacity=".1231" stroke-width="3.293"/>
  <path transform="matrix(.66782 0 0 .64732 367.04 458.26)" d="m1079.4 370.4c0 208.11-163.53 376.81-365.25 376.81s-365.25-168.7-365.25-376.81 163.53-376.81 365.25-376.81 365.25 168.7 365.25 376.81z" stroke="#fff" stroke-linecap="round" stroke-opacity=".1231" stroke-width="3.293"/>
  <path transform="matrix(.65419 0 0 .63411 376.77 463.16)" d="m1079.4 370.4c0 208.11-163.53 376.81-365.25 376.81s-365.25-168.7-365.25-376.81 163.53-376.81 365.25-376.81 365.25 168.7 365.25 376.81z" stroke="#fff" stroke-linecap="round" stroke-opacity=".1231" stroke-width="3.293"/>
  <path transform="matrix(.64056 0 0 .6209 386.51 468.05)" d="m1079.4 370.4c0 208.11-163.53 376.81-365.25 376.81s-365.25-168.7-365.25-376.81 163.53-376.81 365.25-376.81 365.25 168.7 365.25 376.81z" stroke="#fff" stroke-linecap="round" stroke-opacity=".1231" stroke-width="3.293"/>
  <path transform="matrix(.62693 0 0 .60769 396.24 472.94)" d="m1079.4 370.4c0 208.11-163.53 376.81-365.25 376.81s-365.25-168.7-365.25-376.81 163.53-376.81 365.25-376.81 365.25 168.7 365.25 376.81z" stroke="#fff" stroke-linecap="round" stroke-opacity=".1231" stroke-width="3.293"/>
  <path transform="matrix(.6133 0 0 .59448 405.97 477.84)" d="m1079.4 370.4c0 208.11-163.53 376.81-365.25 376.81s-365.25-168.7-365.25-376.81 163.53-376.81 365.25-376.81 365.25 168.7 365.25 376.81z" stroke="#fff" stroke-linecap="round" stroke-opacity=".1231" stroke-width="3.293"/>
  <path transform="matrix(.59967 0 0 .58127 415.7 482.73)" d="m1079.4 370.4c0 208.11-163.53 376.81-365.25 376.81s-365.25-168.7-365.25-376.81 163.53-376.81 365.25-376.81 365.25 168.7 365.25 376.81z" stroke="#fff" stroke-linecap="round" stroke-opacity=".1231" stroke-width="3.293"/>
  <path transform="matrix(.58604 0 0 .56806 425.44 487.62)" d="m1079.4 370.4c0 208.11-163.53 376.81-365.25 376.81s-365.25-168.7-365.25-376.81 163.53-376.81 365.25-376.81 365.25 168.7 365.25 376.81z" stroke="#fff" stroke-linecap="round" stroke-opacity=".1231" stroke-width="3.293"/>
  <path transform="matrix(.55879 0 0 .54164 444.9 497.41)" d="m1079.4 370.4c0 208.11-163.53 376.81-365.25 376.81s-365.25-168.7-365.25-376.81 163.53-376.81 365.25-376.81 365.25 168.7 365.25 376.81z" stroke="#fff" stroke-linecap="round" stroke-opacity=".1231" stroke-width="3.293"/>
  <path transform="matrix(.54516 0 0 .52843 454.63 502.3)" d="m1079.4 370.4c0 208.11-163.53 376.81-365.25 376.81s-365.25-168.7-365.25-376.81 163.53-376.81 365.25-376.81 365.25 168.7 365.25 376.81z" stroke="#fff" stroke-linecap="round" stroke-opacity=".1231" stroke-width="3.293"/>
  <path transform="matrix(.53153 0 0 .51522 464.37 507.2)" d="m1079.4 370.4c0 208.11-163.53 376.81-365.25 376.81s-365.25-168.7-365.25-376.81 163.53-376.81 365.25-376.81 365.25 168.7 365.25 376.81z" stroke="#fff" stroke-linecap="round" stroke-opacity=".1231" stroke-width="3.293"/>
  <path transform="matrix(.5179 0 0 .50201 474.1 512.09)" d="m1079.4 370.4c0 208.11-163.53 376.81-365.25 376.81s-365.25-168.7-365.25-376.81 163.53-376.81 365.25-376.81 365.25 168.7 365.25 376.81z" stroke="#fff" stroke-linecap="round" stroke-opacity=".1231" stroke-width="3.293"/>
  <path transform="matrix(.50427 0 0 .48879 483.83 516.98)" d="m1079.4 370.4c0 208.11-163.53 376.81-365.25 376.81s-365.25-168.7-365.25-376.81 163.53-376.81 365.25-376.81 365.25 168.7 365.25 376.81z" stroke="#fff" stroke-linecap="round" stroke-opacity=".1231" stroke-width="3.293"/>
  <path transform="matrix(.49064 0 0 .47558 493.56 521.88)" d="m1079.4 370.4c0 208.11-163.53 376.81-365.25 376.81s-365.25-168.7-365.25-376.81 163.53-376.81 365.25-376.81 365.25 168.7 365.25 376.81z" stroke="#fff" stroke-linecap="round" stroke-opacity=".1231" stroke-width="3.293"/>
  <path transform="matrix(.47701 0 0 .46237 503.3 526.77)" d="m1079.4 370.4c0 208.11-163.53 376.81-365.25 376.81s-365.25-168.7-365.25-376.81 163.53-376.81 365.25-376.81 365.25 168.7 365.25 376.81z" stroke="#fff" stroke-linecap="round" stroke-opacity=".1231" stroke-width="3.293"/>
  <path transform="matrix(.46338 0 0 .44916 513.03 531.66)" d="m1079.4 370.4c0 208.11-163.53 376.81-365.25 376.81s-365.25-168.7-365.25-376.81 163.53-376.81 365.25-376.81 365.25 168.7 365.25 376.81z" stroke="#fff" stroke-linecap="round" stroke-opacity=".1231" stroke-width="3.293"/>
  <path transform="matrix(.44976 0 0 .43595 522.76 536.55)" d="m1079.4 370.4c0 208.11-163.53 376.81-365.25 376.81s-365.25-168.7-365.25-376.81 163.53-376.81 365.25-376.81 365.25 168.7 365.25 376.81z" stroke="#fff" stroke-linecap="round" stroke-opacity=".1231" stroke-width="3.293"/>
  <path transform="matrix(.43613 0 0 .42274 532.49 541.45)" d="m1079.4 370.4c0 208.11-163.53 376.81-365.25 376.81s-365.25-168.7-365.25-376.81 163.53-376.81 365.25-376.81 365.25 168.7 365.25 376.81z" stroke="#fff" stroke-linecap="round" stroke-opacity=".1231" stroke-width="3.293"/>
  <path transform="matrix(.4225 0 0 .40953 542.23 546.34)" d="m1079.4 370.4c0 208.11-163.53 376.81-365.25 376.81s-365.25-168.7-365.25-376.81 163.53-376.81 365.25-376.81 365.25 168.7 365.25 376.81z" stroke="#fff" stroke-linecap="round" stroke-opacity=".1231" stroke-width="3.293"/>
  <path transform="matrix(.39524 0 0 .38311 561.69 556.13)" d="m1079.4 370.4c0 208.11-163.53 376.81-365.25 376.81s-365.25-168.7-365.25-376.81 163.53-376.81 365.25-376.81 365.25 168.7 365.25 376.81z" stroke="#fff" stroke-linecap="round" stroke-opacity=".1231" stroke-width="3.293"/>
  <path transform="matrix(.38161 0 0 .3699 571.43 561.02)" d="m1079.4 370.4c0 208.11-163.53 376.81-365.25 376.81s-365.25-168.7-365.25-376.81 163.53-376.81 365.25-376.81 365.25 168.7 365.25 376.81z" stroke="#fff" stroke-linecap="round" stroke-opacity=".1231" stroke-width="3.293"/>
  <path transform="matrix(.36798 0 0 .35669 581.16 565.91)" d="m1079.4 370.4c0 208.11-163.53 376.81-365.25 376.81s-365.25-168.7-365.25-376.81 163.53-376.81 365.25-376.81 365.25 168.7 365.25 376.81z" stroke="#fff" stroke-linecap="round" stroke-opacity=".1231" stroke-width="3.293"/>
  <path transform="matrix(.35435 0 0 .34348 590.89 570.81)" d="m1079.4 370.4c0 208.11-163.53 376.81-365.25 376.81s-365.25-168.7-365.25-376.81 163.53-376.81 365.25-376.81 365.25 168.7 365.25 376.81z" stroke="#fff" stroke-linecap="round" stroke-opacity=".1231" stroke-width="3.293"/>
  <path transform="matrix(.34072 0 0 .33027 600.62 575.7)" d="m1079.4 370.4c0 208.11-163.53 376.81-365.25 376.81s-365.25-168.7-365.25-376.81 163.53-376.81 365.25-376.81 365.25 168.7 365.25 376.81z" stroke="#fff" stroke-linecap="round" stroke-opacity=".1231" stroke-width="3.293"/>
  <path transform="matrix(.27258 0 0 .26421 649.29 600.17)" d="m1079.4 370.4c0 208.11-163.53 376.81-365.25 376.81s-365.25-168.7-365.25-376.81 163.53-376.81 365.25-376.81 365.25 168.7 365.25 376.81z"/>
  <text transform="translate(.91384 3.9272)" font-family="Century Gothic" font-size="24.058" letter-spacing="0" word-spacing="0">
   <textPath font-size="12" xlink:href="#a">Casablanca Records                                                 All rights reserved</textPath>
  </text>
  <path transform="matrix(.95185 0 0 .92263 164.22 356.29)" d="m1050.6 517.07c-18.482 45.081-45.227 85.679-78.275 119.77l-255.38-249.91-339.43-163.2c18.482-45.081 45.227-85.679 78.275-119.77l257.48 249.91z" fill="#5d5d5d" filter="url(#b)" opacity=".7672"/>
  <path transform="matrix(-.16038 -.17816 .1727 -.15546 894.5 882.84)" d="m1079.4 370.4c0 208.11-163.53 376.81-365.25 376.81s-365.25-168.7-365.25-376.81 163.53-376.81 365.25-376.81 365.25 168.7 365.25 376.81z" fill="#222f5e"/>
  <path transform="matrix(.45249 0 0 .73214 670.79 438.85)" d="m405.3 354a22.652 14 0 1 1 -45.305 0 22.652 14 0 1 1 45.305 0z"/>
 </g>
</svg>
